<?xml version="1.0" encoding="UTF-8" standalone="no"?>
<!DOCTYPE svg PUBLIC "-//W3C//DTD SVG 1.1//EN" "http://www.w3.org/Graphics/SVG/1.1/DTD/svg11.dtd">
<svg width="100%" height="100%" viewBox="0 0 24 37" version="1.1" xmlns="http://www.w3.org/2000/svg" xmlns:xlink="http://www.w3.org/1999/xlink" xml:space="preserve" xmlns:serif="http://www.serif.com/" style="fill-rule:evenodd;clip-rule:evenodd;stroke-miterlimit:10;">
    <g id="Mesa-de-trabajo1" serif:id="Mesa de trabajo1" transform="matrix(0.668638,0,0,0.798731,-256.007,-221.486)">
        <rect x="382.879" y="277.297" width="35.128" height="45.785" style="fill:none;"/>
        <clipPath id="_clip1">
            <rect x="382.879" y="277.297" width="35.128" height="45.785"/>
        </clipPath>
        <g clip-path="url(#_clip1)">
            <g transform="matrix(1.61767,0,0,1.30338,377.603,275.201)">
                <clipPath id="_clip2">
                    <rect x="2.992" y="1.489" width="22.167" height="35.615"/>
                </clipPath>
                <g clip-path="url(#_clip2)">
                    <path d="M19.1,19C19.1,19.2 19,19.4 18.9,19.5C18.8,19.7 18.7,19.8 18.5,19.9C18.2,20.1 17.9,20.2 17.6,20.3C17,20.5 16.4,20.7 15.7,21C15,21.3 14.4,21.5 13.8,21.7C13.1,22 12.4,22.2 11.8,22.4C11.3,22.6 10.9,22.9 10.5,23.3C10.1,23.7 9.8,24.1 9.5,24.6C9.2,25.1 9,25.8 9,26.6C9,28.2 9.3,29.3 10,30.1C10.7,30.9 12,31.2 13.9,31.2C15.8,31.2 17.2,30.8 17.9,30C18.6,29.2 18.9,28 18.9,26.6L19.1,19ZM14.1,2.6C17.5,2.6 20,3.3 21.6,4.7C23.2,6.2 24,8 24,10.1L24,28.4C24,29.1 23.9,30 23.6,30.8C23.4,31.7 22.9,32.5 22.1,33.2C21.4,33.9 20.4,34.6 19.1,35.1C17.8,35.6 16.1,35.8 14.1,35.8C12.1,35.8 10.4,35.5 9.1,35.1C7.8,34.6 6.8,34 6.1,33.2C5.4,32.5 4.9,31.7 4.6,30.8C4.4,29.9 4.2,29.1 4.2,28.4L4.2,25.5C4.2,23.9 4.6,22.5 5.3,21.2C6.1,19.9 7.1,19 8.5,18.5C9.2,18.2 10,18 10.9,17.6C11.8,17.3 12.6,16.9 13.5,16.6C14.3,16.3 15.1,16 15.7,15.7C16.1,15.5 16.5,15.4 16.8,15.3L17.4,15C17.6,14.9 17.9,14.6 18.1,14.3C18.3,14 18.6,13.7 18.7,13.3C18.9,12.9 19,12.5 19,12L19,10.8C19,10.4 18.9,9.9 18.8,9.5C18.7,9.1 18.4,8.6 18,8.3C17.6,7.9 17.1,7.6 16.5,7.4C15.9,7.2 15,7.1 14.1,7.1C12.2,7.1 10.9,7.5 10.2,8.4C9.6,9.1 9.3,10.1 9.2,11.1C9.2,11.3 9,11.5 8.8,11.5L4.6,11.6C4.5,11.6 4.4,11.6 4.3,11.5C4.2,11.4 4.2,11.3 4.2,11.2L4.2,10.1C4.2,9.1 4.4,8.1 4.8,7.2C5.2,6.3 5.8,5.5 6.6,4.8C7.4,4.1 8.4,3.6 9.7,3.2C10.9,2.8 12.4,2.6 14.1,2.6Z" style="fill:rgb(71,229,188);stroke:rgb(61,49,91);stroke-width:1px;"/>
                </g>
            </g>
        </g>
    </g>
</svg>
