<?xml version="1.0" encoding="UTF-8" standalone="no"?>
<!DOCTYPE svg PUBLIC "-//W3C//DTD SVG 1.1//EN" "http://www.w3.org/Graphics/SVG/1.1/DTD/svg11.dtd">
<svg width="100%" height="100%" viewBox="0 0 80 55" version="1.1" xmlns="http://www.w3.org/2000/svg" xmlns:xlink="http://www.w3.org/1999/xlink" xml:space="preserve" xmlns:serif="http://www.serif.com/" style="fill-rule:evenodd;clip-rule:evenodd;stroke-linejoin:round;stroke-miterlimit:2;">
    <g id="LOGO" transform="matrix(0.38077,0,0,0.38077,0,-0.114)">
        <g id="g23">
            <g id="g9">
                <path id="path7" d="M55.6,0.3L65.1,0.3C65.6,0.3 66,0.7 66,1.2L66,96.5C66,97 65.6,97.4 65.1,97.4L55.6,97.4C55.1,97.4 54.7,97 54.7,96.5L54.7,1.2C54.7,0.7 55.1,0.3 55.6,0.3ZM121,78.7L121,81.1C121,82.2 120.8,83.6 120.4,85.4C120.1,87.1 119.2,89 117.6,90.7C116.1,92.4 113.9,94 110.8,95.4C107.7,96.6 103.6,97.3 98.2,97.3C92.8,97.3 88.7,96.6 85.6,95.4C82.5,94.2 80.4,92.6 78.8,90.7C77.3,89 76.3,87.1 76,85.3C75.7,83.5 75.4,82.1 75.4,81.1L75.4,26.8C75.4,26.3 75.8,25.9 76.3,25.9L85.8,25.9C86.3,25.9 86.7,26.3 86.7,26.8L86.7,77.6C86.7,79.3 86.9,80.5 87.2,81.4C87.4,82.4 87.9,83.3 88.6,84.1C89.3,85 90.4,85.7 91.9,86.3C93.3,86.9 95.3,87.2 97.8,87.2C100.4,87.2 102.5,86.9 104,86.3C105.5,85.7 106.7,85.1 107.4,84.2C108.2,83.4 108.7,82.5 109,81.5C109.2,80.5 109.6,79.8 109.6,77.4L109.6,26.8C109.6,26.3 110,25.9 110.5,25.9L120,25.9C120.5,25.9 120.9,26.3 120.9,26.8L121,78.7ZM153.4,26L159.8,26C160.4,26 160.8,26.6 160.6,27.1L158.4,35.4C158.3,35.8 157.9,36.1 157.6,36.1L153.1,36.1C150.7,36.1 148.8,36.4 147.3,37.1C145.9,37.8 144.6,38.4 143.9,39.3C143.2,40.2 142.7,41 142.4,42C142.2,43 142.1,43.8 142.1,44.7L142.1,96.6C142.1,97.1 141.7,97.5 141.2,97.5L131.6,97.5C131.1,97.5 130.7,97.1 130.7,96.6L130.7,42.3C130.7,41.3 130.9,39.9 131.3,38.1C131.6,36.3 132.5,34.5 134.1,32.7C135.6,31 137.8,29.4 140.9,28C143.9,26.6 148.1,26 153.4,26ZM22.6,26C30.3,26 36.1,27.5 39.7,30.6C43.3,33.7 45.1,37.5 45.1,42.1L45.1,81.1C45.1,82.7 44.8,84.4 44.2,86.3C43.6,88.2 42.5,90 40.9,91.5C39.2,93.1 36.9,94.4 34,95.5C31.1,96.6 27.3,97.1 22.6,97.1C17.9,97.1 14.1,96.5 11.2,95.5C8.3,94.5 6,93.1 4.3,91.5C2.6,89.9 1.5,88.2 1,86.3C0.4,84.5 0,82.7 0,81.1L0,74.9C0,71.6 0.9,68.5 2.6,65.7C4.4,63 6.8,61 9.9,59.9C11.5,59.3 13.2,58.8 15.3,58.1C17.3,57.4 19.3,56.8 21.2,56C23.1,55.3 24.7,54.8 26.2,54.3C27.6,53.7 28.5,53.5 28.9,53.3C29.2,53.1 29.7,52.9 30.2,52.6C30.8,52.3 31.3,51.8 31.9,51.3C32.5,50.6 32.9,50 33.2,49.2C33.6,48.4 33.8,47.5 33.8,46.4L33.8,43.9C33.8,43 33.6,42.2 33.2,41.2C32.9,40.2 32.2,39.5 31.4,38.6C30.6,37.8 29.3,37.2 27.9,36.7C26.5,36.2 24.7,36 22.4,36C18,36 15.1,36.9 13.4,38.7C12.1,40.3 11.2,42.2 11.1,44.4C11.1,44.9 10.7,45.2 10.2,45.2L0.9,45.2C0.4,45.2 0,44.8 0,44.3L0,42C0,39.8 0.4,37.7 1.2,35.8C2,33.7 3.4,32 5.3,30.5C7.1,29.1 9.5,27.8 12.4,27.1C15.2,26.5 18.6,26 22.6,26ZM34,61.1C33.8,62 33.3,62.6 32.7,63.1C32,63.6 31.4,63.8 30.7,64.1C29.4,64.6 27.9,65.1 26.4,65.6C24.9,66.2 23.4,66.7 22.1,67.1C20.5,67.7 18.9,68.2 17.6,68.7C16.5,69.2 15.5,69.8 14.5,70.5C13.7,71.2 13,72.1 12.3,73.2C11.6,74.4 11.3,75.7 11.3,77.4C11.3,80.7 12.1,83.2 13.7,84.9C15.3,86.5 18.3,87.4 22.6,87.4C27,87.4 30,86.5 31.7,84.8C33.3,83.1 34.1,80.6 34.1,77.5L34,61.1ZM187.6,26C195.3,26 201.1,27.5 204.7,30.6C208.3,33.7 210.1,37.5 210.1,42.1L210.1,81.1C210.1,82.7 209.8,84.4 209.2,86.3C208.6,88.2 207.5,90 205.9,91.5C204.3,93 201.9,94.4 199,95.5C196.1,96.6 192.3,97.1 187.6,97.1C182.9,97.1 179.1,96.5 176.2,95.5C173.3,94.5 171,93.1 169.3,91.5C167.6,89.9 166.5,88.2 166,86.3C165.4,84.4 165.1,82.6 165.1,81.1L165.1,74.9C165.1,71.6 166,68.5 167.7,65.7C169.4,63 171.9,61 175,59.9C176.6,59.3 178.3,58.8 180.4,58.1C182.4,57.4 184.4,56.8 186.3,56C188.2,55.3 189.8,54.8 191.3,54.3C192.7,53.7 193.6,53.5 194,53.3C194.3,53.1 194.8,52.9 195.3,52.6C195.9,52.3 196.4,51.8 197,51.3C197.6,50.6 198,50 198.3,49.2C198.7,48.4 198.9,47.5 198.9,46.4L198.9,43.9C198.9,43 198.7,42.2 198.3,41.2C198,40.2 197.3,39.5 196.5,38.6C195.6,37.8 194.4,37.2 193,36.7C191.6,36.2 189.8,36 187.5,36C183.1,36 180.2,36.9 178.5,38.7C177.2,40.3 176.3,42.2 176.2,44.4C176.2,44.9 175.8,45.2 175.3,45.2L165.7,45.2C165.2,45.2 164.8,44.8 164.8,44.3L164.8,42C164.8,39.8 165.2,37.7 166,35.8C166.8,33.9 168.2,32.1 170.1,30.6C171.9,29.2 174.3,27.9 177.2,27.2C180.2,26.5 183.6,26 187.6,26ZM198.9,61.1C198.7,62 198.2,62.6 197.6,63.1C196.9,63.6 196.3,63.8 195.6,64.1C194.3,64.6 192.8,65.1 191.3,65.6C189.8,66.2 188.3,66.7 187,67.1C185.4,67.7 183.8,68.2 182.5,68.7C181.4,69.2 180.4,69.8 179.4,70.5C178.6,71.2 177.9,72.1 177.2,73.2C176.5,74.3 176.2,75.7 176.2,77.4C176.2,80.7 177,83.2 178.6,84.9C180.2,86.5 183.2,87.4 187.5,87.4C191.9,87.4 194.9,86.5 196.6,84.8C198.2,83.1 199,80.6 199,77.5L198.9,61.1Z" style="fill:white;fill-rule:nonzero;"/>
            </g>
            <g id="g21">
                <path id="path11" d="M70,111.8C70,111.3 70.4,110.9 70.9,110.9L76.4,110.9C76.9,110.9 77.3,111.3 77.3,111.8L77.3,136.3L88.2,136.3C88.7,136.3 89.1,136.7 89.1,137.2L89.1,142.2C89.1,142.7 88.7,143.1 88.2,143.1L70.9,143.1C70.4,143.1 70,142.7 70,142.2L70,111.8Z" style="fill:white;fill-rule:nonzero;"/>
                <path id="path13" d="M90.9,141.9L105.2,111.1C105.3,110.8 105.7,110.6 106,110.6L106.5,110.6C106.8,110.6 107.1,110.8 107.3,111.1L121.6,141.9C121.9,142.5 121.5,143.1 120.8,143.1L115.7,143.1C114.9,143.1 114.5,142.8 114.1,142L112.5,138.4L100,138.4L98.4,142.1C98.2,142.6 97.7,143.2 96.8,143.2L91.8,143.2C90.9,143.1 90.6,142.5 90.9,141.9ZM109.7,132.1L106.2,124.5L102.8,132.1L109.7,132.1Z" style="fill:white;fill-rule:nonzero;"/>
                <path id="path15" d="M127.8,117.7L121.2,117.7C120.7,117.7 120.3,117.3 120.3,116.8L120.3,111.8C120.3,111.3 120.7,110.9 121.2,110.9L141.5,110.9C142,110.9 142.4,111.3 142.4,111.8L142.4,116.8C142.4,117.3 142,117.7 141.5,117.7L135,117.7L135,142.2C135,142.7 134.6,143.1 134.1,143.1L128.6,143.1C128.1,143.1 127.7,142.7 127.7,142.2L127.7,117.7L127.8,117.7Z" style="fill:white;fill-rule:nonzero;"/>
                <path id="path17" d="M141.3,141.9L155.6,111.1C155.7,110.8 156.1,110.6 156.4,110.6L156.9,110.6C157.2,110.6 157.5,110.8 157.7,111.1L172,141.9C172.3,142.5 171.9,143.1 171.2,143.1L166.1,143.1C165.3,143.1 164.9,142.8 164.5,142L162.9,138.4L150.4,138.4L148.8,142.1C148.6,142.6 148.1,143.2 147.1,143.2L142.1,143.2C141.4,143.1 141,142.5 141.3,141.9ZM160.1,132.1L156.6,124.5L153.2,132.1L160.1,132.1Z" style="fill:white;fill-rule:nonzero;"/>
                <path id="path19" d="M178.9,111.2C178.9,110.8 179.4,110.5 179.7,110.5L180.4,110.5C180.6,110.5 181,110.7 181.2,111L191.8,130.8L191.9,130.8L202.5,111C202.6,110.7 203.1,110.5 203.3,110.5L204,110.5C204.4,110.5 204.8,110.8 204.8,111.2L210,142C210.1,142.6 209.7,143 209.1,143L203.7,143C203.3,143 202.9,142.6 202.8,142.3L200.7,128.1L200.6,128.1L192.9,142.9C192.8,143.2 192.4,143.4 192.1,143.4L191.3,143.4C191,143.4 190.7,143.2 190.5,142.9L182.8,128.1L182.7,128.1L180.7,142.3C180.7,142.7 180.3,143 179.8,143L174.4,143C173.8,143 173.4,142.6 173.5,142L178.9,111.2Z" style="fill:white;fill-rule:nonzero;"/>
            </g>
        </g>
    </g>
</svg>
